<?xml version="1.0" encoding="UTF-8" standalone="no"?>
<!-- Created with Inkscape (http://www.inkscape.org/) -->

<svg
   width="5.0000014mm"
   height="5.0000019mm"
   viewBox="0 0 5.0000014 5.0000019"
   version="1.1"
   id="svg1"
   xml:space="preserve"
   xmlns="http://www.w3.org/2000/svg"
   xmlns:svg="http://www.w3.org/2000/svg"><defs
     id="defs1" /><g
     id="layer1"
     transform="translate(-102.5,-146.00001)"><circle
       style="fill:#76b900;fill-opacity:1;fill-rule:evenodd;stroke-width:0.155153"
       id="path3"
       cx="105"
       cy="148.5"
       r="2.5" /><g
       style="fill:#ffffff;fill-opacity:1"
       id="g1"
       transform="matrix(0.14285714,0,0,0.14285714,103.85714,147.35714)"><path
         fill="currentColor"
         fill-rule="evenodd"
         d="m 6.61,7 h 2.78 l 0.5,2 H 13 v 2.5 h 1 V 11 h 1 v 2 H 14 V 12.5 H 13 V 15 H 3 V 12.5 H 2 V 13 H 1 v -2 h 1 v 0.5 H 3 V 9 H 6.11 Z M 7.14,9 H 8.86 L 8.61,8 H 7.39 Z M 4,10 v 4 h 8 v -4 z m 7,2.5 H 5 v -1 h 6 z"
         clip-rule="evenodd"
         id="path1"
         style="fill:#ffffff;fill-opacity:1" /><path
         fill="currentColor"
         fill-rule="evenodd"
         d="m 7,1 h 8 V 6 H 13.707 L 11.23,8.48 10.61,6 H 7 Z m 1,1 v 3 h 3.39 L 11.771,6.523 13.293,5 H 14 V 2 Z"
         clip-rule="evenodd"
         id="path2"
         style="fill:#ffffff;fill-opacity:1" /></g></g></svg>
